# xmcd
#
# Track frame offsets:
#	150
#	21360
#	43537
#	62815
#	84797
#	105525
#	127960
#	151887
#	163234
#	185860
#	209332
#	240347
#	260884
#	282862
#
# Disc length: 4144 seconds
#
# Revision: 9
# Processed by: cddbd v1.5.2PL0 Copyright (c) Steve Scherf et al.
# Submitted via: EasyCDDAExtractor 11.1.0.1
#
DISCID=c0102e0e
DTITLE=Walter Trout And The Free Radicals - Livin' Every Day
DYEAR=1999
DGENRE=Blues
TTITLE0=Livin' Every Day
TTITLE1=Let Me Know
TTITLE2=Playing With A Losin' Hand
TTITLE3=Sweet Butterfly (Sophie's Song)
TTITLE4=I Thought I Heard The Devil
TTITLE5=Through The Eyes Of Love
TTITLE6=Nothin' But The Blues
TTITLE7=City Man
TTITLE8=Fool For Love
TTITLE9=Say What You Mean
TTITLE10=Apparitions
TTITLE11=Junkyards In Your Eyes
TTITLE12=The Love That We Once Knew
TTITLE13=Prisoner Of A Dream
EXTD=YEAR: 1999
EXTT0=
EXTT1=
EXTT2=
EXTT3=
EXTT4=
EXTT5=
EXTT6=
EXTT7=
EXTT8=
EXTT9=
EXTT10=
EXTT11=
EXTT12=
EXTT13=
PLAYORDER=
